# xmcd
#
# Track frame offsets: 
#        150
#        22949
#        44226
#        61588
#        84822
#        107393
#        125940
#        150336
#        165790
#
# Disc length: 2449 seconds
#
# Revision: 3
# Processed by: cddbd v1.5.2PL0 Copyright (c) Steve Scherf et al.
# Submitted via: ExactAudioCopy v0.95b4
#
DISCID=5b098f09
DTITLE=The Mutants - Voodoo Blues
DYEAR=2003
DGENRE=
TTITLE0=Caligula
TTITLE1=High Ride
TTITLE2=Voodoo Blues
TTITLE3=Sin Hipster
TTITLE4=Lumbago
TTITLE5=Stampede Caravan
TTITLE6=Southern Far Out
TTITLE7=Papa Simba
TTITLE8=Move Along!
EXTD=
EXTT0=
EXTT1=
EXTT2=
EXTT3=
EXTT4=
EXTT5=
EXTT6=
EXTT7=
EXTT8=
PLAYORDER=
